<svg xmlns="http://www.w3.org/2000/svg" width="558.26" height="386.37" viewBox="0 0 558.26 386.37"><g transform="translate(-168.54)"><path d="M726.77,182.56C726.77,82,601.81,0,447.65,0S168.54,82,168.54,182.56v10.7c0,106.7,109.23,193.11,279.1,193.11,170.93,0,279.16-86.39,279.16-193.1Z" fill="#2d3277"/><path d="M716.09,182.47c0,94.82-120.16,171.68-268.4,171.68S179.32,277.29,179.32,182.47,299.48,10.78,447.69,10.78s268.4,76.87,268.4,171.69" fill="#f7d032"/><path d="M358.58,128.3c-.13.28-2.81,3-1.09,5.27,4.25,5.41,17.33,8.52,30.56,5.55,7.87-1.77,18-9.8,27.75-17.56,10.6-8.42,21.12-16.85,31.68-20.21,11.2-3.57,18.36-2,23.1-.59,5.2,1.55,11.32,5,21.06,12.28,18.38,13.8,92.22,78.26,105,89.41,10.27-4.65,55.94-24.31,118-38-5.4-33.09-25.52-63.36-56-88.13-42.64,17.87-94.59,27.2-145.43,2.36-.26-.1-27.77-13.13-54.92-12.49C418,67.13,400.5,84.59,382,103.06Z" fill="#fff"/><path d="M593.61,209.45c-.87-.77-86.82-76-106.3-90.62-11.26-8.46-17.54-10.61-24.12-11.44a32.61,32.61,0,0,0-11.46,1.09c-9.07,2.46-20.92,10.38-31.42,18.72-10.9,8.68-21.17,16.85-30.69,19-12.17,2.73-27-.49-33.81-5.07a15,15,0,0,1-5.62-6.15c-2.49-5.82,2.11-10.46,2.88-11.23l23.71-25.66c2.76-2.76,5.54-5.51,8.39-8.21a150.416,150.416,0,0,0-21.61,4.87c-8.6,2.41-16.87,4.71-25.23,4.71-3.5,0-22.2-3.07-25.75-4-21.47-5.88-40.31-11.59-68.44-24.73-33.73,25.09-56.29,56.48-62.8,91.06,4.84,1.29,12.66,3.61,15.93,4.33,76.31,17,100.09,34.46,104.4,38.11a25.23,25.23,0,0,1,39.6,2.32,28.76,28.76,0,0,1,18.19-6.4,33.89,33.89,0,0,1,10.9,1.91,25.13,25.13,0,0,1,15.37,13.88,25.14,25.14,0,0,1,10.61-2.25,32,32,0,0,1,12.69,2.8c14.08,6,16.26,19.85,15,30.27a25.344,25.344,0,0,1,3-.17,30.23,30.23,0,0,1,26.63,44.56c4.52,2.54,16.11,8.32,26.26,7,8.12-1,11.2-3.81,12.31-5.36.74-1.09,1.55-2.32.81-3.23l-21.5-23.96s-3.55-3.34-2.38-4.64,3.4.58,4.95,1.87c11,9.15,24.35,23,24.35,23,.22.16,1.11,1.89,6.06,2.78,4.25.77,11.78.32,17-4a26.688,26.688,0,0,0,3.74-3.84,1.258,1.258,0,0,1-.24.2c5.5-7.05-.62-14.17-.62-14.17l-25.13-28.24s-3.6-3.31-2.37-4.65c1.08-1.16,3.41.59,5,1.89,8,6.66,19.21,17.94,30,28.5,2.11,1.54,11.58,7.41,24.12-.83,7.62-5,9.14-11.13,8.93-15.76-.53-6.12-5.31-10.49-5.31-10.49L525.3,202.7s-3.63-3.09-2.35-4.66c1.05-1.31,3.4.59,4.94,1.87,11,9.16,40.56,36.31,40.56,36.31.41.29,10.64,7.57,23.3-.48,4.51-2.88,7.41-7.23,7.66-12.3a18.21,18.21,0,0,0-5.77-14" fill="#fff"/><path d="M427.05,253.21c-5.32-.06-11.15,3.11-11.9,2.64-.44-.28.32-2.41.82-3.65s7.52-22.31-9.58-29.65c-13.07-5.61-21.07.7-23.83,3.57-.7.74-1,.68-1.11-.28-.27-3.79-2-14.08-13.26-17.51-16.12-4.94-26.51,6.31-29.12,10.37a18.68,18.68,0,1,0-5.56,15.88c.1.11.14.28.1.64-.79,4.63-2.24,21.46,15.38,28.32,7.06,2.73,13.08.7,18.06-2.8,1.48-1.05,1.72-.61,1.51.79-.64,4.33.17,13.59,13.16,18.87,9.9,4,15.75-.09,19.57-3.65,1.68-1.51,2.13-1.27,2.22,1.09a23.56,23.56,0,1,0,23.54-24.63" fill="#fff"/><path d="M427.05,298.64a21.72,21.72,0,0,1-21.83-20.87c0-1-.13-3.66-2.39-3.66a4.19,4.19,0,0,0-2.65,1.39c-2.6,2.42-5.9,4.86-10.72,4.86a18.83,18.83,0,0,1-7.07-1.54c-12.46-5-12.62-13.6-12.12-17a3.12,3.12,0,0,0-.46-2.63l-.76-.67h-.78a3.76,3.76,0,0,0-2.16.87,18.18,18.18,0,0,1-10.58,3.77,16.22,16.22,0,0,1-5.9-1.17c-16.4-6.38-15.12-21.86-14.32-26.52a2.25,2.25,0,0,0-.7-2.16l-1.17-1-1.08,1.05a17.05,17.05,0,1,1,5.05-14.42l.59,4.56,2.51-3.87c.28-.45,7.17-10.86,19.82-10.84a25.2,25.2,0,0,1,7.4,1.15c10.08,3.08,11.79,12.24,12.06,16,.18,2.22,1.76,2.33,2.07,2.33a2.82,2.82,0,0,0,2-1,17.15,17.15,0,0,1,12.5-5.27,23.75,23.75,0,0,1,9.39,2.12c16,6.88,8.77,27.26,8.68,27.47-1.38,3.37-1.43,4.85-.13,5.72l.62.3h.48a11.7,11.7,0,0,0,3.1-.81,27.439,27.439,0,0,1,8.55-1.88h0a21.867,21.867,0,1,1,0,43.735m169.89-98.2c-26.48-23.1-87.68-76.31-104.25-88.74-9.48-7.12-15.92-10.89-21.6-12.58a35.66,35.66,0,0,0-10.6-1.64A44.75,44.75,0,0,0,447,99.73c-10.71,3.4-21.38,11.88-31.7,20.08l-.53.42c-9.61,7.65-19.55,15.55-27.07,17.24a46.361,46.361,0,0,1-10,1.11c-8.42,0-16-2.44-18.83-6.06-.47-.6-.16-1.57.94-3l.13-.19,23.3-25.1C401.47,86,418.7,68.8,458.36,67.89h2c24.69,0,49.39,11.07,52.15,12.35,23.15,11.3,47,17,71.06,17.05,25,0,50.87-6.19,78-18.69-3-2.55-6.19-5-9.44-7.47-23.85,10.34-46.59,15.56-68.52,15.55-22.4,0-44.77-5.39-66.5-16-1.14-.56-28.41-13.4-56.77-13.41h-2.23c-33.31.79-52.09,12.61-64.71,23-12.27.3-22.86,3.27-32.29,5.88-8.4,2.35-15.66,4.38-22.76,4.37-2.9,0-8.16-.27-8.62-.28-8.15-.25-49.19-10.31-81.82-22.68-3.33,2.37-6.54,4.81-9.66,7.29,34.1,14,75.6,24.78,88.69,25.63,3.64.24,7.52.65,11.4.67,8.66,0,17.31-2.43,25.67-4.78,5-1.39,10.41-2.89,16.15-4-1.54,1.49-3.06,3-4.6,4.55L351.9,122.53c-1.86,1.87-5.91,6.88-3.24,13.07a16.55,16.55,0,0,0,6.22,6.9c5.65,3.81,15.75,6.37,25.13,6.37a45,45,0,0,0,10-1.05c9.92-2.22,20.33-10.51,31.34-19.27,8.8-7,21.27-15.84,30.82-18.44a35.111,35.111,0,0,1,8.59-1.18,21.351,21.351,0,0,1,2.21.12c6.33.81,12.42,3,23.32,11.13,19.43,14.6,105.39,89.8,106.24,90.54a16.53,16.53,0,0,1,5.16,12.64c-.2,4.39-2.64,8.28-6.87,11a21,21,0,0,1-11.28,3.51,18.8,18.8,0,0,1-10-2.88c-.32-.26-29.76-27.27-40.6-36.35-1.72-1.43-3.41-2.72-5.09-2.72a2.85,2.85,0,0,0-2.26,1.06c-1.71,2.11.2,5,2.46,6.93l34.4,34.58c0,.05,4.29,4,4.75,9.33.28,5.73-2.47,10.52-8.17,14.26a22.1,22.1,0,0,1-12.2,4,17.79,17.79,0,0,1-9.8-3l-4.94-4.87c-9-8.87-18.33-18-25.14-23.74-1.67-1.38-3.45-2.66-5.14-2.66a3,3,0,0,0-2.17.91c-.77.88-1.32,2.43.62,5a16.663,16.663,0,0,0,1.74,1.93l25.1,28.21c.22.25,5.18,6.13.57,12l-.89,1.13a24.317,24.317,0,0,1-2.33,2.24c-4.29,3.52-10,3.89-12.27,3.89a18.751,18.751,0,0,1-3.39-.28c-2.48-.44-4.14-1.14-4.95-2.09l-.3-.31c-1.37-1.42-14-14.34-24.5-23.09-1.38-1.15-3.1-2.6-4.89-2.6a3,3,0,0,0-2.26,1c-2.07,2.27,1,5.67,2.36,6.9l21.42,23.62a5.37,5.37,0,0,1-.82,1.43c-.77,1.08-3.37,3.68-11.13,4.65a22.321,22.321,0,0,1-2.84.17c-8,0-16.56-3.89-21-6.22A31.59,31.59,0,0,0,459,276.8a32,32,0,0,0-31.93-32h-1.15c.56-8-.57-23.29-16.21-30a33.52,33.52,0,0,0-13.35-2.94,26.891,26.891,0,0,0-9.79,1.78,26.79,26.79,0,0,0-15.64-13.29,35.13,35.13,0,0,0-11.45-2,30.26,30.26,0,0,0-17.86,5.7,26.93,26.93,0,0,0-40.09-2.24c-6.66-5.09-33.12-21.89-103.88-38-3.42-.78-11.29-3-16.11-4.45a116.685,116.685,0,0,0-1.8,11.61s13,3.14,15.62,3.72c72.28,16.05,96.18,32.75,100.21,35.9a27.1,27.1,0,0,0,25,37.51,26.532,26.532,0,0,0,5-.45c2.26,11,9.45,19.32,20.44,23.6a27,27,0,0,0,9.66,1.87,25,25,0,0,0,6.17-.77c2,5.16,6.59,11.58,16.81,15.72a28.269,28.269,0,0,0,10.63,2.2,23.84,23.84,0,0,0,8.26-1.47,31.91,31.91,0,0,0,52.4,10.2c5.15,2.87,16,8.06,27,8.07a35.992,35.992,0,0,0,4.09-.26c10.93-1.38,16-5.66,18.35-9a13.393,13.393,0,0,0,1.12-1.85,30.851,30.851,0,0,0,8.67,1.35c6,0,11.69-2,17.47-6.24s9.73-10,10.31-15a.912.912,0,0,0,0-.23,28.753,28.753,0,0,0,5.85.6,32.44,32.44,0,0,0,18-5.7c11.14-7.29,13.07-16.83,12.89-23.08a28.841,28.841,0,0,0,5.93.62,31.11,31.11,0,0,0,16.82-5.17,24.6,24.6,0,0,0,11.68-19,25.65,25.65,0,0,0-3.7-15.37c18.65-8,61.3-23.6,111.51-34.92a115.659,115.659,0,0,0-1.57-11.57,640.064,640.064,0,0,0-117.44,38.16" fill="#2d3277"/></g></svg>